<svg version="1.1" id="Layer_1" xmlns="http://www.w3.org/2000/svg" xmlns:xlink="http://www.w3.org/1999/xlink" x="0px" y="0px" viewBox="0 0 40 40" enable-background="new 0 0 40 40" xml:space="preserve">
<g>
<path fill="#ffffff" d="M25.625,26.468c-0.979,0-1.775-1.217-1.775-2.712c0-1.496,0.797-2.714,1.775-2.714S27.4,22.26,27.4,23.756
		C27.4,25.251,26.604,26.468,25.625,26.468L25.625,26.468z" id="id_104"></path>
<path fill="#ffffff" d="M14.375,26.468c-0.979,0-1.775-1.217-1.775-2.712c0-1.496,0.797-2.714,1.775-2.714s1.775,1.218,1.775,2.714
		C16.15,25.251,15.354,26.468,14.375,26.468L14.375,26.468z" id="id_105"></path>
<path fill="#ffffff" d="M19.964,32.093c-1.304,0-2.505-0.05-3.571-0.146c-1.071-0.097-2.141-0.269-3.178-0.512
		c-1.028-0.241-1.957-0.56-2.759-0.945c-0.799-0.386-1.551-0.889-2.236-1.496c-0.683-0.605-1.254-1.317-1.695-2.116
		c-0.443-0.797-0.795-1.753-1.045-2.841C5.228,22.953,5.1,21.72,5.1,20.368c0-2.389,0.811-4.482,2.407-6.226l0.042-0.045
		L7.527,14.04c-0.087-0.231-0.166-0.494-0.239-0.79c-0.071-0.295-0.139-0.72-0.201-1.264c-0.063-0.539-0.039-1.174,0.071-1.886
		C7.27,9.388,7.478,8.649,7.776,7.906c-0.003,0.019,0.013,0.025,0.04,0.025c0.03,0,0.074-0.008,0.124-0.016
		c0.027,0,0.054-0.001,0.08-0.001c0.197,0,0.387,0.015,0.636,0.04c0.381,0.037,0.8,0.122,1.244,0.252
		c0.441,0.13,1.029,0.377,1.797,0.757c0.761,0.38,1.559,0.854,2.369,1.408c1.494-0.372,3.46-0.568,5.926-0.568
		c2.477,0,4.447,0.196,5.856,0.582c0.903-0.573,1.697-1.047,2.44-1.423c0.755-0.378,1.349-0.626,1.816-0.755
		c0.466-0.13,0.88-0.218,1.231-0.261c0.211-0.026,0.386-0.039,0.524-0.039c0.086,0,0.158,0.005,0.215,0.016l0.221,0.043
		c0.226,0.683,0.434,1.421,0.545,2.134c0.109,0.705,0.134,1.34,0.071,1.886c-0.063,0.549-0.131,0.974-0.203,1.264
		c-0.071,0.296-0.15,0.559-0.239,0.789l-0.021,0.059l0.042,0.045c1.599,1.742,2.409,3.837,2.409,6.226
		c0,1.343-0.128,2.577-0.38,3.668c-0.249,1.084-0.604,2.04-1.052,2.841c-0.448,0.8-1.023,1.512-1.711,2.116
		c-0.691,0.608-1.449,1.111-2.25,1.496c-0.808,0.386-1.741,0.704-2.774,0.945c-1.042,0.243-2.113,0.415-3.185,0.512
		C22.481,32.043,21.275,32.093,19.964,32.093L19.964,32.093z M14.448,18.954c-0.259,0-0.521,0.006-0.79,0.016
		c-0.646,0.024-1.236,0.13-1.754,0.313c-0.519,0.186-0.979,0.462-1.367,0.821c-1.298,1.188-1.955,2.517-1.955,3.947
		c0,0.849,0.107,1.611,0.319,2.268c0.213,0.655,0.489,1.215,0.821,1.664c0.335,0.449,0.806,0.837,1.399,1.151
		c0.581,0.308,1.159,0.55,1.719,0.72c0.554,0.166,1.275,0.298,2.146,0.393c0.873,0.093,1.655,0.149,2.325,0.168
		c0.682,0.02,1.545,0.028,2.593,0.028c1.047,0,1.912-0.009,2.592-0.028c0.671-0.019,1.454-0.075,2.327-0.168
		c0.87-0.095,1.592-0.227,2.145-0.393c0.56-0.17,1.138-0.412,1.72-0.719c0.592-0.314,1.063-0.702,1.397-1.152
		c0.333-0.447,0.61-1.008,0.821-1.664c0.214-0.653,0.321-1.417,0.321-2.268c0-1.452-0.657-2.781-1.956-3.948
		c-0.388-0.358-0.848-0.634-1.368-0.819c-0.517-0.185-1.106-0.29-1.752-0.314c-0.269-0.01-0.531-0.016-0.79-0.016
		c-0.363,0-0.718,0.011-1.063,0.031c-0.585,0.034-1.311,0.08-2.171,0.139c-0.84,0.058-1.588,0.088-2.224,0.088
		c-0.635,0-1.383-0.03-2.223-0.088c-0.86-0.059-1.586-0.104-2.174-0.139C15.164,18.965,14.812,18.954,14.448,18.954L14.448,18.954z
		 M25.359,17.632c0.274,0,0.56,0.005,0.842,0.015c0.78,0.03,1.502,0.162,2.146,0.391c0.686,0.244,1.297,0.61,1.816,1.088
		c1.584,1.429,2.387,3.086,2.387,4.927c0,0.519-0.036,1.015-0.106,1.474l0.19,0.056c0.238-0.543,0.439-1.163,0.598-1.843
		c0.228-0.988,0.343-2.122,0.343-3.37c0-2.078-0.673-3.822-2.06-5.33l-0.591-0.646l0.309-0.817c0.067-0.181,0.132-0.396,0.191-0.64
		c0.041-0.162,0.104-0.484,0.175-1.099c0.048-0.42,0.025-0.936-0.067-1.534c-0.046-0.304-0.114-0.613-0.203-0.928l-0.025-0.087
		l-0.089,0.016c-0.224,0.041-0.477,0.101-0.755,0.181c-0.255,0.068-0.737,0.24-1.576,0.663c-0.681,0.341-1.424,0.784-2.207,1.317
		l-0.582,0.397l-0.596-0.199c-1.299-0.356-3.151-0.537-5.507-0.537c-2.345,0-4.192,0.181-5.493,0.537l-0.679,0.186l-0.499-0.384
		c-0.768-0.522-1.513-0.966-2.215-1.317c-0.848-0.42-1.326-0.596-1.578-0.669C9.264,9.4,9.014,9.343,8.783,9.306L8.695,9.292
		L8.672,9.377c-0.09,0.313-0.158,0.622-0.205,0.926c-0.092,0.6-0.114,1.116-0.066,1.534c0.071,0.614,0.135,0.937,0.175,1.1
		c0.06,0.242,0.124,0.458,0.191,0.639l0.307,0.817l-0.59,0.646c-1.387,1.51-2.061,3.253-2.061,5.33c0,1.24,0.116,2.375,0.345,3.37
		c0.095,0.406,0.202,0.789,0.325,1.148l0.194-0.039c-0.019-0.26-0.03-0.523-0.03-0.796c0-1.818,0.802-3.474,2.383-4.92
		c0.522-0.483,1.136-0.852,1.821-1.094c0.643-0.23,1.365-0.361,2.147-0.392c0.282-0.01,0.565-0.015,0.841-0.015
		c0.386,0,0.769,0.011,1.137,0.032c0.588,0.034,1.324,0.082,2.185,0.139c0.816,0.058,1.534,0.086,2.134,0.086
		s1.317-0.028,2.134-0.086c0.863-0.057,1.598-0.104,2.186-0.139C24.592,17.643,24.973,17.632,25.359,17.632L25.359,17.632z" id="id_106"></path>
</g>
</svg>